<svg id="Line" height="512" viewBox="0 0 64 64" width="512" xmlns="http://www.w3.org/2000/svg"><path d="m18.519 52.21a.354.354 0 0 1 -.01-.06 67.8 67.8 0 0 0 -5.91 9.42 1 1 0 0 0 1.8.86 66.1 66.1 0 0 1 5.881-9.32c-.3-.03-.61-.08-.921-.12a1 1 0 0 1 -.84-.78z" fill="#c4a2fc"/><path d="m62.472 14.24a1 1 0 0 0 -.972-1.24 41 41 0 0 0 -34.05 17.23 10.8 10.8 0 0 1 -.95-4.23 1 1 0 0 0 -1.8-.6c-8.961 11.94-6.421 25.59-6.191 26.75a101.58 101.58 0 0 1 26.442-24.99 1 1 0 1 1 1.1 1.68 99.553 99.553 0 0 0 -25.771 24.27 49.464 49.464 0 0 0 6.34.41c16.171 0 23.321-8.48 23.651-8.89a1 1 0 0 0 -.93-1.62 13.639 13.639 0 0 1 -5.38.01c12.81-6.53 18.271-27.83 18.511-28.78z" fill="#c4a2fc"/><g fill="#151a6a"><path d="m43.5 1h-32a7.008 7.008 0 0 0 -7 7v31h-2a1 1 0 0 0 -1 1 7.008 7.008 0 0 0 7 7h23a7.008 7.008 0 0 0 7-7v-31h11a1 1 0 0 0 1-1 7.008 7.008 0 0 0 -7-7zm-35 44a5.01 5.01 0 0 1 -4.9-4h20.971a6.991 6.991 0 0 0 2.034 4zm28-5a5 5 0 0 1 -10 0 1 1 0 0 0 -1-1h-19v-31a5.006 5.006 0 0 1 5-5h27.11a6.977 6.977 0 0 0 -2.11 5zm2.1-33a5 5 0 0 1 9.8 0z"/><path d="m31.5 13h-20a1 1 0 0 0 0 2h20a1 1 0 0 0 0-2z"/><path d="m31.5 21h-20a1 1 0 0 0 0 2h20a1 1 0 0 0 0-2z"/><path d="m31.5 29h-20a1 1 0 0 0 0 2h20a1 1 0 0 0 0-2z"/></g></svg>